Coordinates
version=1
nRows=24
nColumns=24
inDegrees=yes

Units are S.I. units (second, meters, Newtons, ...)
Angles are in degrees.

endheader
time	pelvis_tilt	pelvis_list	pelvis_rotation	pelvis_tx	pelvis_ty	pelvis_tz	hip_flexion_r	hip_adduction_r	hip_rotation_r	knee_angle_r	ankle_angle_r	subtalar_angle_r	mtp_angle_r	hip_flexion_l	hip_adduction_l	hip_rotation_l	knee_angle_l	ankle_angle_l	subtalar_angle_l	mtp_angle_l	lumbar_extension	lumbar_bending	lumbar_rotation
      4.85000000	     -7.98772031	      1.48955446	      6.92654919	      2.71390747	      0.67083985	     -0.14024661	     33.63006212	     -2.47957749	      8.36026218	    -15.98520246	      4.68484666	    -27.33670255	      0.00000000	    -11.23642717	      3.93737542	     13.35521769	      8.42258043	      7.04548986	    -10.62093581	      0.00000000	    -21.05364666	     -2.87799451	    -16.61013144
      4.86000000	     -7.67571157	      2.09553658	      9.11900212	      2.73722930	      0.66845212	     -0.14298560	     32.11992922	     -4.64545110	      6.45711983	     -7.91514862	      7.57152238	    -20.22328913	      0.00000000	    -13.78135837	      4.09805724	     14.29666944	      8.38087712	      7.17020155	     -9.68905970	      0.00000000	    -20.94624454	     -2.79435747	    -18.97091274
      4.87000000	     -7.25287526	      2.52391128	     10.91053996	      2.76099148	      0.66598042	     -0.14524665	     30.75265948	     -6.07255017	      2.80245833	     -1.44973753	     10.42231888	    -11.43694377	      0.00000000	    -16.22313812	      3.97674881	     14.70736772	      7.89294971	      7.32258624	     -8.55325402	      0.00000000	    -20.86333764	     -2.71295232	    -20.67968163
      4.88000000	     -6.75450836	      2.53203533	     12.21297259	      2.78501586	      0.66371025	     -0.14678231	     29.61321717	     -6.37233583	     -1.04651825	      3.27066436	     12.15911793	     -3.76207068	      0.00000000	    -18.35621491	      3.38291820	     14.74893864	      6.88267288	      7.31969095	     -7.54740159	      0.00000000	    -20.75432306	     -2.39986461	    -21.67178228
      4.89000000	     -6.18430304	      2.20868666	     12.99853029	      2.80920990	      0.66184632	     -0.14764910	     28.56179905	     -5.81726293	     -3.36943945	      6.43662434	     12.63914978	      0.52833909	      0.00000000	    -20.08717780	      2.51679966	     14.47353068	      5.24214506	      6.89434616	     -6.82207514	      0.00000000	    -20.64275678	     -1.91928827	    -22.04857683
      4.90000000	     -5.57708723	      1.77917952	     13.47233748	      2.83354242	      0.66052619	     -0.14818441	     27.51759182	     -4.92752533	     -4.41932730	      8.11871325	     12.39726534	      1.59905488	      0.00000000	    -21.30099888	      1.66885018	     14.03935130	      2.75206871	      6.01533222	     -6.49756429	      0.00000000	    -20.54031697	     -1.41238479	    -22.25714255
      4.91000000	     -5.01289121	      1.36760938	     13.74763142	      2.85810889	      0.65973195	     -0.14853950	     26.59661057	     -3.94499265	     -5.37240916	      8.24540793	     11.97799733	      1.52024532	      0.00000000	    -21.89627845	      0.99183644	     13.34286892	     -0.64178997	      4.43848999	     -6.12708726	      0.00000000	    -20.34923683	     -0.99099711	    -22.39752485
      4.92000000	     -4.48074972	      1.16494673	     14.00979613	      2.88303030	      0.65933181	     -0.14887964	     25.58776207	     -3.17432304	     -6.37989266	      7.25543618	     11.24622653	      0.54043705	      0.00000000	    -21.76981474	      0.61123939	     11.83197013	     -5.18014325	      2.43824218	     -5.01107805	      0.00000000	    -20.06737362	     -0.82786015	    -22.65081117
      4.93000000	     -4.24104580	      1.14029335	     14.43201914	      2.90826490	      0.65885621	     -0.14932336	     24.60255487	     -2.75197201	     -7.33537919	      5.71059374	      9.91491827	     -0.93357672	      0.00000000	    -20.66764146	      0.40091787	      9.85904999	    -10.73352333	     -0.36473066	     -4.01716602	      0.00000000	    -19.34447180	     -0.93170797	    -23.14889509
      4.94000000	     -4.10075069	      1.03597738	     15.05783938	      2.93374331	      0.65825970	     -0.14989095	     23.34069254	     -2.38112448	     -8.18061755	      4.25207086	      7.74426331	     -2.70547727	      0.00000000	    -18.89039303	     -0.03515105	      7.73903236	    -16.93847372	     -4.15391996	     -4.12908437	      0.00000000	    -18.34878377	     -0.95164664	    -23.76030295
      4.95000000	     -3.94929981	      0.74695390	     15.68044843	      2.95921856	      0.65763447	     -0.15042312	     21.67911034	     -1.80730314	     -8.28501872	      3.36670967	      4.26452206	     -5.55562846	      0.00000000	    -16.75607192	     -0.72888312	      5.85859946	    -23.28712371	     -9.06677009	     -6.40585419	      0.00000000	    -17.28354574	     -0.79197190	    -24.05448359
      4.96000000	     -3.83676682	     -0.06587192	     16.16281909	      2.98433862	      0.65704104	     -0.15079945	     19.88573381	     -0.64447243	     -7.84273206	      3.09929238	      0.27022221	     -8.70082995	      0.00000000	    -14.11331724	     -1.93753086	      4.08325813	    -29.77817759	    -14.13680309	    -10.61540600	      0.00000000	    -16.09357249	     -0.07541775	    -23.97518232
      4.97000000	     -3.62834127	     -1.40403197	     16.14510674	      3.00872225	      0.65679722	     -0.15081603	     17.97706211	      1.22534486	     -6.65561528	      3.32548414	     -3.37881744	    -11.41162585	      0.00000000	    -11.25067968	     -3.53156926	      2.46336033	    -36.18085986	    -18.81440745	    -16.55841023	      0.00000000	    -15.11117531	      1.22682777	    -23.08373816
      4.98000000	     -3.23419266	     -3.28805236	     15.65533947	      3.03220697	      0.65711746	     -0.15052505	     15.83468777	      3.78895604	     -4.64794259	      3.98080202	     -6.15796711	    -13.98871119	      0.00000000	     -8.32925841	     -5.55040126	      1.18727310	    -42.39725812	    -22.36415237	    -22.92781227	      0.00000000	    -14.53211598	      3.20096699	    -21.62030558
      4.99000000	     -2.77306968	     -5.51938680	     14.59394421	      3.05470866	      0.65809432	     -0.14996395	     13.62517008	      6.77551864	     -2.44252201	      4.68010447	     -6.70834149	    -14.60621646	      0.00000000	     -5.44644028	     -7.65158186	      0.43669058	    -48.15665071	    -24.62196757	    -29.03235151	      0.00000000	    -14.38472217	      5.57355893	    -19.50114372
      5.00000000	     -2.39627809	     -7.60214888	     13.04083976	      3.07636551	      0.65963546	     -0.14921759	     11.11810826	      9.55271335	      0.53593945	      5.69676362	     -6.16160306	    -14.61365879	      0.00000000	     -2.67478662	     -9.25960632	      0.34748685	    -53.23301089	    -25.22483222	    -33.83984524	      0.00000000	    -14.62961546	      7.69658600	    -16.93311000
      5.01000000	     -2.36760930	     -9.21013979	     11.31706220	      3.09726020	      0.66142290	     -0.14844972	      8.55885062	     11.62571127	      3.54673762	      6.95750716	     -4.68417505	    -13.78047775	      0.00000000	      0.32886531	    -10.00117414	      1.16641407	    -57.65065033	    -23.66290501	    -36.25073261	      0.00000000	    -14.91099015	      9.14188621	    -14.37219795
      5.02000000	     -2.60210195	     -9.34360281	      9.54289694	      3.11772606	      0.66436077	     -0.14713314	      5.82374131	     12.05228895	      6.19329624	      8.32322100	     -2.72410866	    -12.03100581	      0.00000000	      5.86741080	     -9.36848371	      1.69443232	    -63.75985702	    -18.89804128	    -30.24077522	      0.00000000	    -15.38301530	      8.64951517	    -12.13493545
      5.03000000	     -3.02670671	     -9.53107717	      8.00351655	      3.13749932	      0.66598186	     -0.14594692	      3.40376674	     12.38141642	      8.18160435	      9.68651819	     -0.80268898	    -10.36071101	      0.00000000	     10.24296923	     -8.61740424	      3.20204164	    -67.54938449	    -13.60743476	    -25.82073544	      0.00000000	    -15.63430894	      8.15749319	     -9.98323827
      5.04000000	     -3.57143910	     -9.19144969	      6.61880634	      3.15691041	      0.66712630	     -0.14450963	      1.26056295	     12.15488823	      9.60774538	     10.82405104	      0.98182535	     -8.89161604	      0.00000000	     14.67438172	     -7.32783754	      4.90168590	    -70.43212402	     -8.45011025	    -21.28783092	      0.00000000	    -15.81726325	      6.93783627	     -7.96393186
      5.05000000	     -4.07731587	     -8.50341095	      5.26493751	      3.17608006	      0.66786535	     -0.14278370	     -0.66429297	     11.63562715	     10.64445308	     11.61023003	      2.55060246	     -7.72249379	      0.00000000	     18.89317767	     -5.80226601	      6.50821296	    -72.27688087	     -4.16860364	    -17.98117643	      0.00000000	    -16.07709171	      5.21117950	     -5.87025421
      5.06000000	     -4.41984641	     -7.69245378	      3.85402454	      3.19508766	      0.66831020	     -0.14085959	     -2.43740718	     11.08966332	     11.39943321	     11.93056864	      4.09579446	     -6.99310433	      0.00000000	     22.72861209	     -4.37342429	      7.92508590	    -73.03072724	     -0.93504179	    -16.45464219	      0.00000000	    -16.52613688	      3.27553114	     -3.57825061
      5.07000000	     -4.59013075	     -6.90811617	      2.26782678	      3.21407693	      0.66852314	     -0.13887834	     -4.19710422	     10.58918759	     12.27876222	     11.96472693	      5.47236941	     -6.58731538	      0.00000000	     26.10505447	     -3.27260751	      9.09918254	    -72.62811910	      1.16478833	    -16.95546687	      0.00000000	    -17.10247844	      1.35138291	     -1.13012389
      5.08000000	     -4.62902129	     -6.33128877	      0.46909795	      3.23309152	      0.66855861	     -0.13685731	     -5.89904762	     10.31139488	     13.13281130	     11.65582452	      6.67022209	     -6.47778429	      0.00000000	     29.04732271	     -2.80788046	     10.05903399	    -71.10325627	      2.99409915	    -18.11645954	      0.00000000	    -17.72499298	     -0.34380824	      1.55355841
